<?xml version="1.0" encoding="UTF-8"?>
<!DOCTYPE svg PUBLIC "-//W3C//DTD SVG 1.1//EN" "http://www.w3.org/Graphics/SVG/1.1/DTD/svg11.dtd">
<svg xmlns="http://www.w3.org/2000/svg" version="1.1" width="1350px" height="85px" style="shape-rendering:geometricPrecision; text-rendering:geometricPrecision; image-rendering:optimizeQuality; fill-rule:evenodd; clip-rule:evenodd" xmlns:xlink="http://www.w3.org/1999/xlink">
<g><path style="opacity:1" fill="#fefefe" d="M -0.5,-0.5 C 449.5,-0.5 899.5,-0.5 1349.5,-0.5C 1349.5,3.5 1349.5,7.5 1349.5,11.5C 1301.5,11.5 1253.5,11.5 1205.5,11.5C 1205.5,17.8333 1205.5,24.1667 1205.5,30.5C 1205.5,37.5 1205.5,44.5 1205.5,51.5C 1205.5,58.1667 1205.5,64.8333 1205.5,71.5C 1253.5,71.5 1301.5,71.5 1349.5,71.5C 1349.5,75.8333 1349.5,80.1667 1349.5,84.5C 899.5,84.5 449.5,84.5 -0.5,84.5C -0.5,80.5 -0.5,76.5 -0.5,72.5C 338.163,71.846 676.829,71.1794 1015.5,70.5C 1018.78,64.266 1021.78,57.9326 1024.5,51.5C 1028.59,44.9216 1031.92,37.9216 1034.5,30.5C 1038.01,24.8177 1041.01,18.8177 1043.5,12.5C 1044.04,12.44 1044.38,12.1067 1044.5,11.5C 696.167,10.5 347.834,10.1667 -0.5,10.5C -0.5,6.83333 -0.5,3.16667 -0.5,-0.5 Z"/></g>
<g><path style="opacity:1" fill="#ed9093" d="M -0.5,11.5 C -0.5,11.1667 -0.5,10.8333 -0.5,10.5C 347.834,10.1667 696.167,10.5 1044.5,11.5C 1044.38,12.1067 1044.04,12.44 1043.5,12.5C 695.667,11.5002 347.667,11.1668 -0.5,11.5 Z"/></g>
<g><path style="opacity:1" fill="#d9060c" d="M -0.5,11.5 C 347.667,11.1668 695.667,11.5002 1043.5,12.5C 1041.01,18.8177 1038.01,24.8177 1034.5,30.5C 689.5,30.5 344.5,30.5 -0.5,30.5C -0.5,24.1667 -0.5,17.8333 -0.5,11.5 Z"/></g>
<g><path style="opacity:1" fill="#24b2ea" d="M 1108.5,11.5 C 1099.49,11.3336 1090.49,11.5002 1081.5,12C 1071.56,31.2095 1061.9,50.5428 1052.5,70C 1061.49,70.4998 1070.49,70.6664 1079.5,70.5C 1079.5,70.8333 1079.5,71.1667 1079.5,71.5C 1061.17,71.5 1042.83,71.5 1024.5,71.5C 1033.27,51.2919 1042.6,31.2919 1052.5,11.5C 1071.33,10.1724 1090,10.1724 1108.5,11.5 Z"/></g>
<g><path style="opacity:1" fill="#0f1b93" d="M 1108.5,11.5 C 1098.56,31.0437 1088.89,50.7104 1079.5,70.5C 1070.49,70.6664 1061.49,70.4998 1052.5,70C 1061.9,50.5428 1071.56,31.2095 1081.5,12C 1090.49,11.5002 1099.49,11.3336 1108.5,11.5 Z"/></g>
<g><path style="opacity:1" fill="#d91110" d="M 1108.5,11.5 C 1117.52,11.1685 1126.52,11.5018 1135.5,12.5C 1125.73,31.7104 1116.23,51.0437 1107,70.5C 1097.92,71.4845 1088.75,71.8178 1079.5,71.5C 1079.5,71.1667 1079.5,70.8333 1079.5,70.5C 1088.89,50.7104 1098.56,31.0437 1108.5,11.5 Z"/></g>
<g><path style="opacity:1" fill="#020202" d="M 1135.5,70.5 C 1128.31,70.8245 1121.31,70.4912 1114.5,69.5C 1123.55,50.4035 1132.88,31.4035 1142.5,12.5C 1150.14,11.5025 1157.8,11.1692 1165.5,11.5C 1165.33,18.5079 1165.5,25.5079 1166,32.5C 1169.37,25.5885 1172.87,18.7551 1176.5,12C 1184.16,11.5003 1191.83,11.3336 1199.5,11.5C 1199.5,31.5 1199.5,51.5 1199.5,71.5C 1192.83,71.5 1186.17,71.5 1179.5,71.5C 1179.67,64.4921 1179.5,57.4921 1179,50.5C 1175.63,57.4115 1172.13,64.2449 1168.5,71C 1161.17,71.4997 1153.84,71.6663 1146.5,71.5C 1146.67,64.1591 1146.5,56.8258 1146,49.5C 1142.45,56.5919 1138.95,63.5919 1135.5,70.5 Z"/></g>
<g><path style="opacity:1" fill="#d8060b" d="M 1349.5,11.5 C 1349.5,17.8333 1349.5,24.1667 1349.5,30.5C 1301.5,30.5 1253.5,30.5 1205.5,30.5C 1205.5,24.1667 1205.5,17.8333 1205.5,11.5C 1253.5,11.5 1301.5,11.5 1349.5,11.5 Z"/></g>
<g><path style="opacity:1" fill="#1f1e93" d="M -0.5,30.5 C 344.5,30.5 689.5,30.5 1034.5,30.5C 1031.92,37.9216 1028.59,44.9216 1024.5,51.5C 682.833,51.5 341.167,51.5 -0.5,51.5C -0.5,44.5 -0.5,37.5 -0.5,30.5 Z"/></g>
<g><path style="opacity:1" fill="#1f1e93" d="M 1205.5,30.5 C 1253.5,30.5 1301.5,30.5 1349.5,30.5C 1349.5,37.5 1349.5,44.5 1349.5,51.5C 1301.5,51.5 1253.5,51.5 1205.5,51.5C 1205.5,44.5 1205.5,37.5 1205.5,30.5 Z"/></g>
<g><path style="opacity:1" fill="#15b4ec" d="M -0.5,51.5 C 341.167,51.5 682.833,51.5 1024.5,51.5C 1021.78,57.9326 1018.78,64.266 1015.5,70.5C 676.829,71.1794 338.163,71.846 -0.5,72.5C -0.5,65.5 -0.5,58.5 -0.5,51.5 Z"/></g>
<g><path style="opacity:1" fill="#15b4ec" d="M 1205.5,51.5 C 1253.5,51.5 1301.5,51.5 1349.5,51.5C 1349.5,58.1667 1349.5,64.8333 1349.5,71.5C 1301.5,71.5 1253.5,71.5 1205.5,71.5C 1205.5,64.8333 1205.5,58.1667 1205.5,51.5 Z"/></g>
<g><path style="opacity:1" fill="#727272" d="M 1114.5,69.5 C 1121.31,70.4912 1128.31,70.8245 1135.5,70.5C 1128.32,71.8194 1120.99,71.8194 1113.5,70.5C 1113.62,69.8933 1113.96,69.56 1114.5,69.5 Z"/></g>
</svg>
